<svg id="Capa_1" data-name="Capa 1" xmlns="http://www.w3.org/2000/svg" viewBox="0 0 739.9 276.66"><defs><style>.cls-1{fill:#1d1d1b;}.cls-2{fill:#fff;}</style></defs><path class="cls-1" d="M193.62,536l-41-50.17V536H130.05V423.36h22.59v50.5l41-50.5h27.26l-46.46,55.82L222.17,536Z" transform="translate(-130.05 -418.73)"/><path class="cls-1" d="M260.25,529.68a55.29,55.29,0,0,1-21-20.57,60.73,60.73,0,0,1,0-59.37,55.29,55.29,0,0,1,21-20.57,60.62,60.62,0,0,1,58.16,0,54.9,54.9,0,0,1,20.82,20.57,61.35,61.35,0,0,1,0,59.37,54.76,54.76,0,0,1-20.9,20.57,60.54,60.54,0,0,1-58.08,0Zm46.95-17.34a31.55,31.55,0,0,0,12.1-13.15,43.09,43.09,0,0,0,4.36-19.85,42.59,42.59,0,0,0-4.36-19.76,31.06,31.06,0,0,0-12.1-13,34.89,34.89,0,0,0-17.91-4.52,35.37,35.37,0,0,0-18,4.52,30.87,30.87,0,0,0-12.18,13,42.72,42.72,0,0,0-4.35,19.76,43.22,43.22,0,0,0,4.35,19.85,31.34,31.34,0,0,0,12.18,13.15,34.92,34.92,0,0,0,18,4.6A34.45,34.45,0,0,0,307.2,512.34Z" transform="translate(-130.05 -418.73)"/><path class="cls-1" d="M504.84,423.36V536H482.25V423.36Z" transform="translate(-130.05 -418.73)"/><path class="cls-1" d="M603.74,423.36v18.23h-30V536H551.15V441.59h-30V423.36Z" transform="translate(-130.05 -418.73)"/><path class="cls-1" d="M643.43,529.68a55.29,55.29,0,0,1-21-20.57,60.73,60.73,0,0,1,0-59.37,55.29,55.29,0,0,1,21-20.57,60.62,60.62,0,0,1,58.16,0,54.9,54.9,0,0,1,20.82,20.57,61.35,61.35,0,0,1,0,59.37,54.76,54.76,0,0,1-20.9,20.57,60.54,60.54,0,0,1-58.08,0Zm47-17.34a31.55,31.55,0,0,0,12.1-13.15,43.09,43.09,0,0,0,4.36-19.85,42.59,42.59,0,0,0-4.36-19.76,31.06,31.06,0,0,0-12.1-13,34.89,34.89,0,0,0-17.91-4.52,35.35,35.35,0,0,0-18,4.52,30.87,30.87,0,0,0-12.18,13,42.72,42.72,0,0,0-4.36,19.76,43.22,43.22,0,0,0,4.36,19.85,31.34,31.34,0,0,0,12.18,13.15,34.9,34.9,0,0,0,18,4.6A34.45,34.45,0,0,0,690.38,512.34Z" transform="translate(-130.05 -418.73)"/><path class="cls-1" d="M744.4,420.73l22.05-2L765.2,463l-14.4,1.86Z" transform="translate(-130.05 -418.73)"/><path class="cls-1" d="M808.88,533.07A34.83,34.83,0,0,1,794,521.45a30.56,30.56,0,0,1-5.65-17.91h24.2c.33,4.63,2,8.29,4.92,11s7,4,12.19,4,9.41-1.26,12.42-3.79a12.35,12.35,0,0,0,4.52-9.92,11.48,11.48,0,0,0-3.07-8.23,21.4,21.4,0,0,0-7.66-5.08,127.27,127.27,0,0,0-12.67-4.12A135.86,135.86,0,0,1,805.33,481a31.22,31.22,0,0,1-11.77-9.52q-4.93-6.37-4.93-17a30.42,30.42,0,0,1,5-17.43,31.8,31.8,0,0,1,14-11.37,51,51,0,0,1,20.66-4q17.42,0,28.31,8.47t12,23.64H843.81a12.88,12.88,0,0,0-4.92-9.6q-4.59-3.78-12.18-3.79-6.62,0-10.57,3.39t-3.95,9.84a10.17,10.17,0,0,0,3,7.5A22.62,22.62,0,0,0,822.6,466q4.44,1.86,12.5,4.28A131.38,131.38,0,0,1,853,476.76,32.28,32.28,0,0,1,865,486.44q5,6.46,5,16.94a31.84,31.84,0,0,1-4.68,16.78,33,33,0,0,1-13.71,12.35q-9,4.59-21.46,4.59A53.52,53.52,0,0,1,808.88,533.07Z" transform="translate(-130.05 -418.73)"/><rect x="106.8" y="182.16" width="508.23" height="94.5"/><path class="cls-2" d="M298.26,628.07v45h-9V654H269.93v19.16h-9v-45h9v18.52h19.29V628.07Z" transform="translate(-130.05 -418.73)"/><path class="cls-2" d="M331.56,635.36v11.29h15.17v7.17H331.56v11.93h17.1v7.36H322.52V628h26.14v7.36Z" transform="translate(-130.05 -418.73)"/><path class="cls-2" d="M381.25,666H396.1v7.16H372.22v-45h9Z" transform="translate(-130.05 -418.73)"/><path class="cls-2" d="M444.82,664.53H426.88l-3,8.58h-9.49L430.62,628h10.52l16.2,45.11h-9.55Zm-2.45-7.23-6.52-18.84-6.52,18.84Z" transform="translate(-130.05 -418.73)"/><path class="cls-2" d="M507,630.84a19.8,19.8,0,0,1,8.32,7.91,23.52,23.52,0,0,1,2.94,11.9,23.2,23.2,0,0,1-2.94,11.85,19.88,19.88,0,0,1-8.32,7.84,26.92,26.92,0,0,1-12.49,2.77H478.76v-45h15.75A26.92,26.92,0,0,1,507,630.84Zm-1.84,30.72q3.87-3.87,3.87-10.91t-3.87-11q-3.87-4-11-4H487.8v29.75h6.39Q501.29,665.43,505.16,661.56Z" transform="translate(-130.05 -418.73)"/><path class="cls-2" d="M549.43,635.36v11.29H564.6v7.17H549.43v11.93h17.1v7.36H540.4V628h26.13v7.36Z" transform="translate(-130.05 -418.73)"/><path class="cls-2" d="M613.32,673.11l-9.94-17.55h-4.26v17.55h-9v-45H607a19.81,19.81,0,0,1,8.9,1.83,12.86,12.86,0,0,1,5.52,5,14,14,0,0,1-.74,15,13.23,13.23,0,0,1-7.68,4.94l10.78,18.26Zm-14.2-24.33h7.56q3.68,0,5.48-1.77a6.62,6.62,0,0,0,1.81-4.94,6.33,6.33,0,0,0-1.81-4.81q-1.8-1.71-5.48-1.71h-7.56Z" transform="translate(-130.05 -418.73)"/><path class="cls-2" d="M655.85,628.07v45h-9v-45Z" transform="translate(-130.05 -418.73)"/><path class="cls-2" d="M707.74,664.53H689.8l-3,8.58h-9.49L693.54,628h10.52l16.2,45.11h-9.55Zm-2.46-7.23-6.51-18.84-6.52,18.84Z" transform="translate(-130.05 -418.73)"/><path class="cls-1" d="M431.31,536.45l-41-50.18v50.18H367.75V423.83h22.58v50.5l41-50.5h27.27l-46.47,55.83,47.76,56.79Z" transform="translate(-130.05 -418.73)"/></svg>