<svg id="Capa_1" data-name="Capa 1" xmlns="http://www.w3.org/2000/svg" viewBox="0 0 739.9 276.66"><defs><style>.cls-1{fill:#1d1d1b;}.cls-2{fill:#fff;}</style></defs><path class="cls-1" d="M193.62,478.91l-41-50.18v50.18H130.05V366.3h22.59v50.5l41-50.5h27.26l-46.46,55.82,47.75,56.79Z" transform="translate(-130.05 -361.67)"/><path class="cls-1" d="M260.25,472.62a55.36,55.36,0,0,1-21-20.57,60.73,60.73,0,0,1,0-59.37,55.39,55.39,0,0,1,21-20.58,60.69,60.69,0,0,1,58.16,0,55,55,0,0,1,20.82,20.58,61.35,61.35,0,0,1,0,59.37,54.83,54.83,0,0,1-20.9,20.57,60.54,60.54,0,0,1-58.08,0Zm46.95-17.34a31.55,31.55,0,0,0,12.1-13.15,43.09,43.09,0,0,0,4.36-19.85,42.54,42.54,0,0,0-4.36-19.76,31.06,31.06,0,0,0-12.1-13A34.89,34.89,0,0,0,289.29,385a35.37,35.37,0,0,0-18,4.52,30.87,30.87,0,0,0-12.18,13,42.66,42.66,0,0,0-4.35,19.76,43.22,43.22,0,0,0,4.35,19.85,31.34,31.34,0,0,0,12.18,13.15,34.92,34.92,0,0,0,18,4.59A34.44,34.44,0,0,0,307.2,455.28Z" transform="translate(-130.05 -361.67)"/><path class="cls-1" d="M460,478.91H437.4l-51.14-77.28v77.28H363.67V366.13h22.59l51.14,77.45V366.13H460Z" transform="translate(-130.05 -361.67)"/><path class="cls-1" d="M504.84,366.3V478.91H482.25V366.3Z" transform="translate(-130.05 -361.67)"/><path class="cls-1" d="M603.74,366.3v18.23h-30v94.38H551.15V384.53h-30V366.3Z" transform="translate(-130.05 -361.67)"/><path class="cls-1" d="M643.43,472.62a55.36,55.36,0,0,1-21-20.57,60.73,60.73,0,0,1,0-59.37,55.39,55.39,0,0,1,21-20.58,60.69,60.69,0,0,1,58.16,0,55,55,0,0,1,20.82,20.58,61.35,61.35,0,0,1,0,59.37,54.83,54.83,0,0,1-20.9,20.57,60.54,60.54,0,0,1-58.08,0Zm47-17.34a31.55,31.55,0,0,0,12.1-13.15,43.09,43.09,0,0,0,4.36-19.85,42.54,42.54,0,0,0-4.36-19.76,31.06,31.06,0,0,0-12.1-13A34.89,34.89,0,0,0,672.47,385a35.35,35.35,0,0,0-18,4.52,30.87,30.87,0,0,0-12.18,13,42.66,42.66,0,0,0-4.36,19.76,43.22,43.22,0,0,0,4.36,19.85,31.34,31.34,0,0,0,12.18,13.15,34.89,34.89,0,0,0,18,4.59A34.44,34.44,0,0,0,690.38,455.28Z" transform="translate(-130.05 -361.67)"/><path class="cls-1" d="M744.4,363.67l22.05-2-1.25,44.21-14.4,1.87Z" transform="translate(-130.05 -361.67)"/><path class="cls-1" d="M808.88,476A34.83,34.83,0,0,1,794,464.39a30.56,30.56,0,0,1-5.65-17.91h24.2c.33,4.63,2,8.29,4.92,11s7,4,12.19,4S839,460.22,842,457.7a12.35,12.35,0,0,0,4.52-9.93,11.51,11.51,0,0,0-3.07-8.23,21.53,21.53,0,0,0-7.66-5.08,130.37,130.37,0,0,0-12.67-4.11A135.71,135.71,0,0,1,805.33,424a31.1,31.1,0,0,1-11.77-9.51q-4.93-6.37-4.93-17a30.41,30.41,0,0,1,5-17.42,31.73,31.73,0,0,1,14-11.37,51,51,0,0,1,20.66-4q17.42,0,28.31,8.47t12,23.64H843.81a12.88,12.88,0,0,0-4.92-9.6q-4.59-3.79-12.18-3.79-6.62,0-10.57,3.39c-2.63,2.25-3.95,5.54-3.95,9.84a10.17,10.17,0,0,0,3,7.5A22.62,22.62,0,0,0,822.6,409q4.44,1.86,12.5,4.28A131.38,131.38,0,0,1,853,419.7,32.18,32.18,0,0,1,865,429.38q5,6.45,5,16.94a31.84,31.84,0,0,1-4.68,16.78,33,33,0,0,1-13.71,12.34q-9,4.6-21.46,4.6A53.52,53.52,0,0,1,808.88,476Z" transform="translate(-130.05 -361.67)"/><rect x="106.8" y="182.16" width="508.23" height="94.5"/><path class="cls-2" d="M298.26,571v45h-9V596.88H269.93v19.17h-9V571h9v18.52h19.29V571Z" transform="translate(-130.05 -361.67)"/><path class="cls-2" d="M331.56,578.3v11.29h15.17v7.16H331.56v11.94h17.1v7.36H322.52V570.94h26.14v7.36Z" transform="translate(-130.05 -361.67)"/><path class="cls-2" d="M381.25,608.89H396.1v7.16H372.22V571h9Z" transform="translate(-130.05 -361.67)"/><path class="cls-2" d="M444.82,607.47H426.88l-3,8.58h-9.49l16.2-45.11h10.52l16.2,45.11h-9.55Zm-2.45-7.23-6.52-18.85-6.52,18.85Z" transform="translate(-130.05 -361.67)"/><path class="cls-2" d="M507,573.78a19.77,19.77,0,0,1,8.32,7.9,23.56,23.56,0,0,1,2.94,11.91,23.14,23.14,0,0,1-2.94,11.84,19.82,19.82,0,0,1-8.32,7.84,26.79,26.79,0,0,1-12.49,2.78H478.76V571h15.75A26.92,26.92,0,0,1,507,573.78Zm-1.84,30.72q3.87-3.87,3.87-10.91t-3.87-11q-3.87-4-11-4H487.8v29.75h6.39Q501.29,608.37,505.16,604.5Z" transform="translate(-130.05 -361.67)"/><path class="cls-2" d="M549.43,578.3v11.29H564.6v7.16H549.43v11.94h17.1v7.36H540.4V570.94h26.13v7.36Z" transform="translate(-130.05 -361.67)"/><path class="cls-2" d="M613.32,616.05l-9.94-17.55h-4.26v17.55h-9V571H607a19.81,19.81,0,0,1,8.9,1.84,12.9,12.9,0,0,1,5.52,5,14,14,0,0,1-.74,15,13.28,13.28,0,0,1-7.68,4.94l10.78,18.26Zm-14.2-24.33h7.56q3.68,0,5.48-1.78A6.6,6.6,0,0,0,614,585a6.32,6.32,0,0,0-1.81-4.81q-1.8-1.71-5.48-1.71h-7.56Z" transform="translate(-130.05 -361.67)"/><path class="cls-2" d="M655.85,571v45h-9V571Z" transform="translate(-130.05 -361.67)"/><path class="cls-2" d="M707.74,607.47H689.8l-3,8.58h-9.49l16.2-45.11h10.52l16.2,45.11h-9.55Zm-2.46-7.23-6.51-18.85-6.52,18.85Z" transform="translate(-130.05 -361.67)"/></svg>