<svg id="Capa_1" data-name="Capa 1" xmlns="http://www.w3.org/2000/svg" viewBox="0 0 984 480.24"><defs><style>.cls-1{fill:#1d1d1b;}.cls-2{fill:#fff;}</style></defs><path d="M42.94,534.92c13.27,7.44,24.79,13.94,36.35,20.37a502,502,0,0,0,68.59,31.34c4.3,1.6,6.15,3.31,4.58,8.41-3.48,11.25-6.2,22.72-9.35,34.52-7.29-.24-16.79-8.29-20.38,3.51S131,645,137.89,649.2c-3.18,11.85-6.44,23.67-9.49,35.55-1.06,4.12-3.39,4.72-6.86,3.32q-19.65-7.89-39.28-15.81a5.49,5.49,0,0,1-3.53-3.79c-4.47-16.51-9-33-13.93-51.3,7.44,3.43,13.09,6.21,18.89,8.65,5.37,2.26,11,2.91,14-3.37,3.12-6.48-.54-10.77-6.15-13.7-8-4.15-15.74-8.85-24.06-12.12-7.23-2.85-10.63-7.29-12.31-14.76C51.76,566.71,47.39,551.76,42.94,534.92Z" transform="translate(-6.14 -273.19)"/><path d="M103.51,448.93c-28.33,0-56.66-.13-85,.14-4.72.05-7-1.78-8.86-5.62-9-19.13-.12-43.69,18.84-52.62,3.08-1.46,4.86-.57,6.63,1.6C48.93,409.32,67.8,412.28,88,412.11c24.95-.21,50-2,74.84,1.08,13,1.63,25.22,5.24,34.12,15.79,3.05,3.62,5.7,7.39,3,12.51-2.64,4.93-6.15,7.53-12.2,7.48-28.07-.25-56.14-.11-84.22-.11Z" transform="translate(-6.14 -273.19)"/><path d="M158.94,570.59A608.92,608.92,0,0,1,84.5,536.34c-15.17-8.17-29.78-17.21-44.23-26.55a14.71,14.71,0,0,1-7-9.54c-2.67-11.18-5.73-22.28-8.79-34,12.69-.62,23.74-1.47,34.92,6.42A478.36,478.36,0,0,0,161.8,527.29c6.5,2.53,7.92,5.45,5.71,12C164.17,549.24,161.9,559.53,158.94,570.59Z" transform="translate(-6.14 -273.19)"/><path d="M63.18,322c16.81,29.84,45.61,36.4,74.25,43.16,11.88,2.81,24,1.53,36.1,1.8,14.44.32,25.59,18,19.87,31.17-1.77,4.05-4,5.42-8.36,4-24.9-8.22-50.58-7.6-76.31-6.58-13.06.51-26.16,2.1-39.17-.67-13.22-2.81-23.4-9.7-27.28-23.09-4.08-14.1-4.86-28,7.94-38.92C54.3,329.44,58.42,326,63.18,322Z" transform="translate(-6.14 -273.19)"/><path d="M116.23,273.19c6.71,24.45,31.63,19.24,43,44.13,5.6,12.33,17.39,15.88,15.64,26.5-.67,4.13-1.69,7.52-7.51,7.63a141.37,141.37,0,0,1-72.27-18,39.07,39.07,0,0,1-8-5.93C72.41,313.6,76.66,295.88,96.29,290,104.5,287.47,111.59,284.08,116.23,273.19Z" transform="translate(-6.14 -273.19)"/><path d="M83.63,466.1H187c-4.21,15.5-8.27,30.5-12.45,45.91C142.94,499.71,113.38,485.3,83.63,466.1Z" transform="translate(-6.14 -273.19)"/><path d="M85.49,694.28c12.08,4.68,21.79,8.59,31.62,12.18,3.77,1.38,4.45,3.54,3.47,7.08-3.13,11.34-6.08,22.73-9.22,34.07-.82,3-1.73,5.88-5.92,5.83-3.87-.06-4.5-2.71-5.26-5.47C95.48,730.79,90.78,713.6,85.49,694.28Z" transform="translate(-6.14 -273.19)"/><path class="cls-1" d="M313.81,536l-41-50.17V536H250.24V423.36h22.59v50.5l41-50.5h27.26l-46.46,55.82L342.37,536Z" transform="translate(-6.14 -273.19)"/><path class="cls-1" d="M380.44,529.68a55.29,55.29,0,0,1-21-20.57,60.73,60.73,0,0,1,0-59.37,55.29,55.29,0,0,1,21-20.57,60.64,60.64,0,0,1,58.17,0,54.94,54.94,0,0,1,20.81,20.57,61.35,61.35,0,0,1,0,59.37,54.76,54.76,0,0,1-20.9,20.57,60.54,60.54,0,0,1-58.08,0Zm46.95-17.34a31.48,31.48,0,0,0,12.1-13.15,43.09,43.09,0,0,0,4.36-19.85,42.59,42.59,0,0,0-4.36-19.76,31,31,0,0,0-12.1-13,34.89,34.89,0,0,0-17.91-4.52,35.37,35.37,0,0,0-18,4.52,30.93,30.93,0,0,0-12.18,13A42.72,42.72,0,0,0,375,479.34a43.22,43.22,0,0,0,4.35,19.85,31.4,31.4,0,0,0,12.18,13.15,34.92,34.92,0,0,0,18,4.6A34.45,34.45,0,0,0,427.39,512.34Z" transform="translate(-6.14 -273.19)"/><path class="cls-1" d="M625,423.36V536H602.44V423.36Z" transform="translate(-6.14 -273.19)"/><path class="cls-1" d="M723.93,423.36v18.23h-30V536H671.34V441.59h-30V423.36Z" transform="translate(-6.14 -273.19)"/><path class="cls-1" d="M763.62,529.68a55.29,55.29,0,0,1-21-20.57,60.73,60.73,0,0,1,0-59.37,55.29,55.29,0,0,1,21-20.57,60.62,60.62,0,0,1,58.16,0,54.9,54.9,0,0,1,20.82,20.57,61.35,61.35,0,0,1,0,59.37,54.76,54.76,0,0,1-20.9,20.57,60.54,60.54,0,0,1-58.08,0Zm47-17.34a31.55,31.55,0,0,0,12.1-13.15A43.09,43.09,0,0,0,827,479.34a42.59,42.59,0,0,0-4.36-19.76,31.06,31.06,0,0,0-12.1-13,34.89,34.89,0,0,0-17.91-4.52,35.35,35.35,0,0,0-18,4.52,30.93,30.93,0,0,0-12.18,13,42.72,42.72,0,0,0-4.35,19.76,43.22,43.22,0,0,0,4.35,19.85,31.4,31.4,0,0,0,12.18,13.15,34.9,34.9,0,0,0,18,4.6A34.45,34.45,0,0,0,810.57,512.34Z" transform="translate(-6.14 -273.19)"/><path class="cls-1" d="M864.59,420.73l22-2L885.4,463,871,464.81Z" transform="translate(-6.14 -273.19)"/><path class="cls-1" d="M929.08,533.07a34.8,34.8,0,0,1-14.93-11.62,30.56,30.56,0,0,1-5.65-17.91h24.2a15.69,15.69,0,0,0,4.93,11q4.43,4,12.18,4,7.91,0,12.42-3.79a12.35,12.35,0,0,0,4.52-9.92,11.43,11.43,0,0,0-3.07-8.23,21.31,21.31,0,0,0-7.66-5.08,127.27,127.27,0,0,0-12.67-4.12A135.86,135.86,0,0,1,925.52,481a31.22,31.22,0,0,1-11.77-9.52q-4.93-6.37-4.92-17a30.41,30.41,0,0,1,5-17.43,31.8,31.8,0,0,1,14-11.37,51,51,0,0,1,20.66-4q17.41,0,28.31,8.47t12,23.64H964a13,13,0,0,0-4.92-9.6q-4.61-3.78-12.19-3.79-6.61,0-10.56,3.39t-4,9.84a10.17,10.17,0,0,0,3,7.5,22.62,22.62,0,0,0,7.42,4.84q4.44,1.86,12.5,4.28a130.89,130.89,0,0,1,17.91,6.45,32.2,32.2,0,0,1,11.94,9.68q5,6.46,5,16.94a31.84,31.84,0,0,1-4.68,16.78,33,33,0,0,1-13.71,12.35q-9,4.59-21.46,4.59A53.44,53.44,0,0,1,929.08,533.07Z" transform="translate(-6.14 -273.19)"/><rect x="350.9" y="327.7" width="508.23" height="94.5"/><path class="cls-2" d="M418.45,628.07v45h-9V654h-19.3v19.16h-9v-45h9v18.52h19.3V628.07Z" transform="translate(-6.14 -273.19)"/><path class="cls-2" d="M451.75,635.36v11.29h15.17v7.17H451.75v11.93h17.1v7.36H442.72V628h26.13v7.36Z" transform="translate(-6.14 -273.19)"/><path class="cls-2" d="M501.44,666h14.85v7.16H492.41v-45h9Z" transform="translate(-6.14 -273.19)"/><path class="cls-2" d="M565,664.53H547.07l-3,8.58h-9.49L550.81,628h10.52l16.2,45.11H568Zm-2.45-7.23L556,638.46l-6.52,18.84Z" transform="translate(-6.14 -273.19)"/><path class="cls-2" d="M627.19,630.84a19.88,19.88,0,0,1,8.33,7.91,23.62,23.62,0,0,1,2.93,11.9,23.3,23.3,0,0,1-2.93,11.85,20,20,0,0,1-8.33,7.84,26.92,26.92,0,0,1-12.49,2.77H599v-45H614.7A26.92,26.92,0,0,1,627.19,630.84Zm-1.84,30.72q3.87-3.87,3.87-10.91t-3.87-11q-3.87-4-11-4H608v29.75h6.39Q621.48,665.43,625.35,661.56Z" transform="translate(-6.14 -273.19)"/><path class="cls-2" d="M669.62,635.36v11.29h15.17v7.17H669.62v11.93h17.11v7.36H660.59V628h26.14v7.36Z" transform="translate(-6.14 -273.19)"/><path class="cls-2" d="M733.51,673.11l-9.94-17.55h-4.26v17.55h-9v-45h16.91a19.81,19.81,0,0,1,8.9,1.83,12.8,12.8,0,0,1,5.52,5,14,14,0,0,1-.74,15,13.23,13.23,0,0,1-7.68,4.94L744,673.11Zm-14.2-24.33h7.56q3.68,0,5.48-1.77a6.58,6.58,0,0,0,1.81-4.94,6.3,6.3,0,0,0-1.81-4.81q-1.8-1.71-5.48-1.71h-7.56Z" transform="translate(-6.14 -273.19)"/><path class="cls-2" d="M776,628.07v45h-9v-45Z" transform="translate(-6.14 -273.19)"/><path class="cls-2" d="M827.93,664.53H810l-3,8.58h-9.49L813.73,628h10.52l16.2,45.11H830.9Zm-2.45-7.23L819,638.46l-6.52,18.84Z" transform="translate(-6.14 -273.19)"/><path class="cls-1" d="M551.5,536.45l-41-50.18v50.18H487.94V423.83h22.58v50.5l41-50.5h27.27l-46.46,55.83,47.75,56.79Z" transform="translate(-6.14 -273.19)"/><path d="M191.07,540.57c-10.95,19.44-6.93-43.08.45-69.41,3.65-13-11.38-21.23-3.09-24.45,3.9-1.51,5.76-17.37,10.28-13.71,20,16.23,6.49,41.76,6.86,67.43C205.86,520,199.64,525.36,191.07,540.57Z" transform="translate(-6.14 -273.19)"/></svg>